<svg width="27" height="16" viewBox="0 0 27 16" fill="none" xmlns="http://www.w3.org/2000/svg">
<path d="M25.9928 3.27463C25.8131 3.05073 25.5436 2.93877 25.274 2.93877H7.51401L7.12467 1.76326C6.76528 0.699708 5.747 0 4.54902 0H1.76372C1.25458 0 0.865234 0.363848 0.865234 0.83965C0.865234 1.31545 1.25458 1.6793 1.76372 1.6793H4.54902C4.93836 1.6793 5.29775 1.90321 5.41755 2.26705L8.68204 11.895L8.65209 11.979C8.26275 12.8466 8.3526 13.8262 8.89169 14.6379C9.46073 15.4216 10.3892 15.8974 11.4074 15.8974H23.6867C24.1959 15.8974 24.5852 15.5335 24.5852 15.0577C24.5852 14.5819 24.1959 14.2181 23.6867 14.2181H11.4074C10.9882 14.2181 10.6288 14.0222 10.4191 13.7143C10.2095 13.4064 10.1496 13.0146 10.2993 12.6787H20.8116C22.2491 12.6787 23.507 11.8111 23.9563 10.5236L26.1426 4.03032C26.2025 3.77842 26.1426 3.49854 25.9928 3.27463ZM20.7816 10.9994H10.2394L8.08305 4.61807H24.0461L22.2491 10.0198C22.0095 10.6076 21.4405 10.9994 20.7816 10.9994Z" fill="#9758A6"/>
</svg>
